G04 #@! TF.GenerationSoftware,KiCad,Pcbnew,8.0.7*
G04 #@! TF.CreationDate,2025-01-23T10:02:07+01:00*
G04 #@! TF.ProjectId,hackaday-eu-2025-sao-doge,6861636b-6164-4617-992d-65752d323032,rev?*
G04 #@! TF.SameCoordinates,Original*
G04 #@! TF.FileFunction,Copper,L1,Top*
G04 #@! TF.FilePolarity,Positive*
%FSLAX46Y46*%
G04 Gerber Fmt 4.6, Leading zero omitted, Abs format (unit mm)*
G04 Created by KiCad (PCBNEW 8.0.7) date 2025-01-23 10:02:07*
%MOMM*%
%LPD*%
G01*
G04 APERTURE LIST*
G04 Aperture macros list*
%AMRoundRect*
0 Rectangle with rounded corners*
0 $1 Rounding radius*
0 $2 $3 $4 $5 $6 $7 $8 $9 X,Y pos of 4 corners*
0 Add a 4 corners polygon primitive as box body*
4,1,4,$2,$3,$4,$5,$6,$7,$8,$9,$2,$3,0*
0 Add four circle primitives for the rounded corners*
1,1,$1+$1,$2,$3*
1,1,$1+$1,$4,$5*
1,1,$1+$1,$6,$7*
1,1,$1+$1,$8,$9*
0 Add four rect primitives between the rounded corners*
20,1,$1+$1,$2,$3,$4,$5,0*
20,1,$1+$1,$4,$5,$6,$7,0*
20,1,$1+$1,$6,$7,$8,$9,0*
20,1,$1+$1,$8,$9,$2,$3,0*%
G04 Aperture macros list end*
G04 #@! TA.AperFunction,SMDPad,CuDef*
%ADD10RoundRect,0.250000X-0.350000X-0.450000X0.350000X-0.450000X0.350000X0.450000X-0.350000X0.450000X0*%
G04 #@! TD*
G04 #@! TA.AperFunction,SMDPad,CuDef*
%ADD11RoundRect,0.250000X0.350000X0.450000X-0.350000X0.450000X-0.350000X-0.450000X0.350000X-0.450000X0*%
G04 #@! TD*
G04 #@! TA.AperFunction,ComponentPad*
%ADD12R,1.700000X1.700000*%
G04 #@! TD*
G04 #@! TA.AperFunction,ComponentPad*
%ADD13O,1.700000X1.700000*%
G04 #@! TD*
G04 #@! TA.AperFunction,SMDPad,CuDef*
%ADD14R,1.700000X0.650000*%
G04 #@! TD*
G04 #@! TA.AperFunction,SMDPad,CuDef*
%ADD15RoundRect,0.250000X0.450000X-0.350000X0.450000X0.350000X-0.450000X0.350000X-0.450000X-0.350000X0*%
G04 #@! TD*
G04 #@! TA.AperFunction,SMDPad,CuDef*
%ADD16RoundRect,0.250000X0.337500X0.475000X-0.337500X0.475000X-0.337500X-0.475000X0.337500X-0.475000X0*%
G04 #@! TD*
G04 #@! TA.AperFunction,Conductor*
%ADD17C,0.200000*%
G04 #@! TD*
G04 APERTURE END LIST*
D10*
X122000000Y-59500000D03*
X124000000Y-59500000D03*
X122000000Y-62000000D03*
X124000000Y-62000000D03*
D11*
X133500000Y-48000000D03*
X131500000Y-48000000D03*
D12*
X137500000Y-61000000D03*
D13*
X137500000Y-63540000D03*
X134960000Y-61000000D03*
X134960000Y-63540000D03*
X132420000Y-61000000D03*
X132420000Y-63540000D03*
D10*
X136000000Y-44000000D03*
X134000000Y-44000000D03*
X122000000Y-56500000D03*
X124000000Y-56500000D03*
X122000000Y-54000000D03*
X124000000Y-54000000D03*
D14*
X131700000Y-50190000D03*
X131700000Y-51460000D03*
X131700000Y-52730000D03*
X131700000Y-54000000D03*
X139000000Y-54000000D03*
X139000000Y-52730000D03*
X139000000Y-51460000D03*
X139000000Y-50190000D03*
D15*
X141500000Y-52500000D03*
X141500000Y-50500000D03*
D11*
X132000000Y-56000000D03*
X130000000Y-56000000D03*
D10*
X137000000Y-48000000D03*
X139000000Y-48000000D03*
D11*
X126000000Y-42500000D03*
X124000000Y-42500000D03*
D16*
X133000000Y-58000000D03*
X130925000Y-58000000D03*
D17*
X131700000Y-54000000D02*
X133000000Y-54000000D01*
X133000000Y-54000000D02*
X133500000Y-53500000D01*
X133500000Y-53500000D02*
X133500000Y-52000000D01*
X131700000Y-51460000D02*
X130500000Y-51460000D01*
X130550000Y-48950000D02*
X131500000Y-48000000D01*
X130500000Y-51460000D02*
X130550000Y-51410000D01*
X130550000Y-51410000D02*
X130550000Y-48950000D01*
X133500000Y-52000000D02*
X133500000Y-50042372D01*
X129467157Y-42500000D02*
X126000000Y-42500000D01*
X133500000Y-50042372D02*
X132457628Y-49000000D01*
X132457628Y-49000000D02*
X132457628Y-45490471D01*
X132457628Y-45490471D02*
X129467157Y-42500000D01*
X138500000Y-59134314D02*
X138500000Y-56275000D01*
X139050000Y-59684314D02*
X138500000Y-59134314D01*
X137976346Y-64690000D02*
X139050000Y-63616346D01*
X136110000Y-64690000D02*
X137976346Y-64690000D01*
X140150000Y-54625000D02*
X140150000Y-53375000D01*
X140150000Y-53375000D02*
X138000000Y-53375000D01*
X139050000Y-63616346D02*
X139050000Y-59684314D01*
X134960000Y-63540000D02*
X136110000Y-64690000D01*
X138625000Y-51460000D02*
X139000000Y-51460000D01*
X138000000Y-53375000D02*
X137850000Y-53225000D01*
X137850000Y-53225000D02*
X137850000Y-52235000D01*
X138500000Y-56275000D02*
X140150000Y-54625000D01*
X137850000Y-52235000D02*
X138625000Y-51460000D01*
X134960000Y-61000000D02*
X136350000Y-62390000D01*
X138500000Y-62390000D02*
X138650000Y-62240000D01*
X138000000Y-59200000D02*
X138000000Y-56000000D01*
X138650000Y-59850000D02*
X138000000Y-59200000D01*
X136350000Y-62390000D02*
X138500000Y-62390000D01*
X138650000Y-62240000D02*
X138650000Y-59850000D01*
X138000000Y-56000000D02*
X139000000Y-55000000D01*
X139000000Y-55000000D02*
X139000000Y-54000000D01*
X137500000Y-63540000D02*
X136540000Y-63540000D01*
X136540000Y-63540000D02*
X136110000Y-63110000D01*
X136110000Y-63110000D02*
X136110000Y-63063654D01*
X133570000Y-61570000D02*
X133570000Y-60070000D01*
X136110000Y-63063654D02*
X135436346Y-62390000D01*
X134390000Y-62390000D02*
X133570000Y-61570000D01*
X132425000Y-59500000D02*
X130925000Y-58000000D01*
X135436346Y-62390000D02*
X134390000Y-62390000D01*
X133000000Y-59500000D02*
X132425000Y-59500000D01*
X133570000Y-60070000D02*
X133000000Y-59500000D01*
X137500000Y-61000000D02*
X137450000Y-60950000D01*
X137450000Y-60950000D02*
X137450000Y-58000000D01*
X139000000Y-50190000D02*
X137450000Y-50190000D01*
X137450000Y-50190000D02*
X137450000Y-58000000D01*
X137450000Y-58000000D02*
X135500000Y-58000000D01*
X135500000Y-58000000D02*
X134500000Y-58000000D01*
X132000000Y-56000000D02*
X132500000Y-56500000D01*
X139000000Y-46000000D02*
X137000000Y-44000000D01*
X139000000Y-48000000D02*
X139000000Y-46000000D01*
X137000000Y-44000000D02*
X136000000Y-44000000D01*
X124000000Y-53000000D02*
X124895000Y-52105000D01*
X130925000Y-54775000D02*
X131700000Y-54000000D01*
X133395000Y-52105000D02*
X133500000Y-52000000D01*
X124895000Y-52105000D02*
X133395000Y-52105000D01*
X124000000Y-56500000D02*
X124000000Y-54000000D01*
X130925000Y-58000000D02*
X130925000Y-54775000D01*
X124000000Y-54000000D02*
X124000000Y-53000000D01*
X129500000Y-41500000D02*
X125000000Y-41500000D01*
X133415256Y-43000000D02*
X132915256Y-43500000D01*
X140000000Y-49000000D02*
X140000000Y-46415256D01*
X141500000Y-50500000D02*
X140000000Y-49000000D01*
X132915256Y-43500000D02*
X131500000Y-43500000D01*
X131500000Y-43500000D02*
X129500000Y-41500000D01*
X140000000Y-46415256D02*
X136584744Y-43000000D01*
X136584744Y-43000000D02*
X133415256Y-43000000D01*
X125000000Y-41500000D02*
X124000000Y-42500000D01*
X124500000Y-61500000D02*
X131000000Y-61500000D01*
X124000000Y-62000000D02*
X124500000Y-61500000D01*
X132420000Y-62920000D02*
X132420000Y-63540000D01*
X131000000Y-61500000D02*
X132420000Y-62920000D01*
X124000000Y-59500000D02*
X124000000Y-60500000D01*
X124000000Y-60500000D02*
X124500000Y-61000000D01*
X124500000Y-61000000D02*
X132420000Y-61000000D01*
X134500000Y-58000000D02*
X133000000Y-58000000D01*
X132000000Y-57000000D02*
X132000000Y-56000000D01*
X133500000Y-48000000D02*
X133500000Y-49000000D01*
X133000000Y-58000000D02*
X132000000Y-57000000D01*
X134690000Y-50190000D02*
X139000000Y-50190000D01*
X133500000Y-49000000D02*
X134690000Y-50190000D01*
X138250000Y-49000000D02*
X139435000Y-49000000D01*
X139000000Y-52730000D02*
X141270000Y-52730000D01*
X140500000Y-50065000D02*
X140500000Y-52730000D01*
X141270000Y-52730000D02*
X141500000Y-52500000D01*
X137000000Y-48000000D02*
X137250000Y-48000000D01*
X140500000Y-52730000D02*
X141270000Y-52730000D01*
X139435000Y-49000000D02*
X140500000Y-50065000D01*
X137250000Y-48000000D02*
X138250000Y-49000000D01*
X124540000Y-51460000D02*
X131700000Y-51460000D01*
X123100000Y-52900000D02*
X124540000Y-51460000D01*
X123100000Y-55400000D02*
X123100000Y-52900000D01*
X122000000Y-59500000D02*
X122000000Y-56500000D01*
X122000000Y-56500000D02*
X123100000Y-55400000D01*
X121100000Y-61100000D02*
X121100000Y-54900000D01*
X130000000Y-56000000D02*
X130000000Y-56500000D01*
X123500000Y-58000000D02*
X123000000Y-58500000D01*
X130000000Y-56500000D02*
X128500000Y-58000000D01*
X131175000Y-52730000D02*
X131700000Y-52730000D01*
X123000000Y-58500000D02*
X123000000Y-61000000D01*
X121100000Y-54900000D02*
X122000000Y-54000000D01*
X122000000Y-62000000D02*
X121100000Y-61100000D01*
X130000000Y-53905000D02*
X131175000Y-52730000D01*
X123000000Y-61000000D02*
X122000000Y-62000000D01*
X128500000Y-58000000D02*
X123500000Y-58000000D01*
X130000000Y-56000000D02*
X130000000Y-53905000D01*
G04 #@! TA.AperFunction,Conductor*
G36*
X126381107Y-29878976D02*
G01*
X127063056Y-30219950D01*
X127114215Y-30267537D01*
X127118511Y-30275405D01*
X127146207Y-30330796D01*
X127423594Y-30885570D01*
X127431911Y-30902204D01*
X127499505Y-31037393D01*
X127507812Y-31058738D01*
X127509999Y-31066384D01*
X127510004Y-31066395D01*
X127531563Y-31102328D01*
X127536141Y-31110667D01*
X127554882Y-31148148D01*
X127554887Y-31148156D01*
X127560166Y-31154109D01*
X127573714Y-31172578D01*
X129041183Y-33618359D01*
X129042241Y-33620156D01*
X129072575Y-33672696D01*
X129073816Y-33674313D01*
X129074100Y-33674731D01*
X129074519Y-33675258D01*
X129075793Y-33676890D01*
X129076205Y-33677427D01*
X129076536Y-33677798D01*
X129077799Y-33679387D01*
X129077801Y-33679389D01*
X129077803Y-33679392D01*
X129121409Y-33721555D01*
X129122896Y-33723018D01*
X130087783Y-34687905D01*
X130099303Y-34701187D01*
X130112212Y-34718399D01*
X130134562Y-34735943D01*
X130145670Y-34745792D01*
X130165763Y-34765885D01*
X130184391Y-34776639D01*
X130198951Y-34786485D01*
X130215870Y-34799766D01*
X130215873Y-34799767D01*
X130215875Y-34799769D01*
X130242005Y-34810930D01*
X130255274Y-34817564D01*
X130279891Y-34831777D01*
X130300669Y-34837344D01*
X130317285Y-34843086D01*
X130337066Y-34851536D01*
X130365203Y-34855555D01*
X130379726Y-34858527D01*
X130407185Y-34865885D01*
X130428695Y-34865885D01*
X130446231Y-34867131D01*
X133865201Y-35355554D01*
X133879726Y-35358527D01*
X133907185Y-35365885D01*
X133928695Y-35365885D01*
X133946230Y-35367131D01*
X133949272Y-35367565D01*
X133967525Y-35370173D01*
X133995730Y-35366774D01*
X134010561Y-35365885D01*
X137956640Y-35365885D01*
X137963157Y-35366056D01*
X137965041Y-35366155D01*
X138012573Y-35368657D01*
X138012893Y-35368588D01*
X138038648Y-35365885D01*
X138038968Y-35365885D01*
X138038969Y-35365885D01*
X138086753Y-35353081D01*
X138093055Y-35351568D01*
X138141483Y-35341286D01*
X138141761Y-35341144D01*
X138165962Y-35331857D01*
X138166263Y-35331777D01*
X138209138Y-35307021D01*
X138214816Y-35303940D01*
X138258917Y-35281483D01*
X138259144Y-35281277D01*
X138280115Y-35266044D01*
X138280391Y-35265885D01*
X138315368Y-35230906D01*
X138320098Y-35226419D01*
X138695762Y-34888322D01*
X143129768Y-30897716D01*
X143192767Y-30867501D01*
X143212720Y-30865885D01*
X144214401Y-30865885D01*
X144281440Y-30885570D01*
X144302082Y-30902204D01*
X144547508Y-31147630D01*
X144570736Y-31179856D01*
X145005568Y-32049519D01*
X145012296Y-32065762D01*
X145466214Y-33427516D01*
X145472577Y-33466728D01*
X145472577Y-36788504D01*
X145468875Y-36818578D01*
X144993339Y-38720719D01*
X144990679Y-38729852D01*
X144977425Y-38769617D01*
X144977423Y-38769627D01*
X144976947Y-38777567D01*
X144973469Y-38800202D01*
X144971540Y-38807917D01*
X144972244Y-38849817D01*
X144972038Y-38859325D01*
X144969527Y-38901166D01*
X144969528Y-38901175D01*
X144971123Y-38908971D01*
X144973621Y-38931724D01*
X144973755Y-38939677D01*
X144973757Y-38939691D01*
X144985282Y-38979979D01*
X144987542Y-38989204D01*
X144995948Y-39030280D01*
X144995949Y-39030282D01*
X144999502Y-39037388D01*
X145007813Y-39058744D01*
X145010000Y-39066388D01*
X145031562Y-39102325D01*
X145036136Y-39110657D01*
X147005568Y-43049519D01*
X147012296Y-43065762D01*
X148485966Y-47486772D01*
X148489921Y-47501666D01*
X149476980Y-52436963D01*
X149478630Y-52447587D01*
X149971819Y-56886280D01*
X149972577Y-56899974D01*
X149972577Y-64740885D01*
X149952892Y-64807924D01*
X149900088Y-64853679D01*
X149848577Y-64864885D01*
X138950058Y-64864885D01*
X138883019Y-64845200D01*
X138837264Y-64792396D01*
X138827320Y-64723238D01*
X138856345Y-64659682D01*
X138862377Y-64653204D01*
X139104185Y-64411395D01*
X139418713Y-64096867D01*
X139418716Y-64096866D01*
X139530520Y-63985062D01*
X139580639Y-63898250D01*
X139609577Y-63848131D01*
X139650501Y-63695403D01*
X139650501Y-63537289D01*
X139650501Y-63529694D01*
X139650500Y-63529676D01*
X139650500Y-59605259D01*
X139650500Y-59605257D01*
X139609577Y-59452530D01*
X139609573Y-59452523D01*
X139530524Y-59315604D01*
X139530521Y-59315600D01*
X139530520Y-59315598D01*
X139418716Y-59203794D01*
X139418715Y-59203793D01*
X139414385Y-59199463D01*
X139414374Y-59199453D01*
X139136819Y-58921898D01*
X139103334Y-58860575D01*
X139100500Y-58834217D01*
X139100500Y-56575096D01*
X139120185Y-56508057D01*
X139136814Y-56487420D01*
X140508506Y-55115727D01*
X140508511Y-55115724D01*
X140518714Y-55105520D01*
X140518716Y-55105520D01*
X140630520Y-54993716D01*
X140709577Y-54856784D01*
X140750500Y-54704057D01*
X140750500Y-53711948D01*
X140770185Y-53644909D01*
X140822989Y-53599154D01*
X140890453Y-53589453D01*
X140890468Y-53589311D01*
X140891038Y-53589369D01*
X140892147Y-53589210D01*
X140895701Y-53589845D01*
X140897200Y-53589998D01*
X140897203Y-53589999D01*
X140999991Y-53600500D01*
X142000008Y-53600499D01*
X142000016Y-53600498D01*
X142000019Y-53600498D01*
X142056302Y-53594748D01*
X142102797Y-53589999D01*
X142269334Y-53534814D01*
X142418656Y-53442712D01*
X142542712Y-53318656D01*
X142634814Y-53169334D01*
X142689999Y-53002797D01*
X142700500Y-52900009D01*
X142700499Y-52099992D01*
X142693932Y-52035709D01*
X142689999Y-51997203D01*
X142689998Y-51997200D01*
X142635542Y-51832864D01*
X142634814Y-51830666D01*
X142542712Y-51681344D01*
X142449049Y-51587681D01*
X142415564Y-51526358D01*
X142420548Y-51456666D01*
X142449049Y-51412319D01*
X142542712Y-51318656D01*
X142634814Y-51169334D01*
X142689999Y-51002797D01*
X142700500Y-50900009D01*
X142700499Y-50099992D01*
X142689999Y-49997203D01*
X142634814Y-49830666D01*
X142542712Y-49681344D01*
X142418656Y-49557288D01*
X142269334Y-49465186D01*
X142102797Y-49410001D01*
X142102795Y-49410000D01*
X142000016Y-49399500D01*
X142000009Y-49399500D01*
X141300097Y-49399500D01*
X141233058Y-49379815D01*
X141212416Y-49363181D01*
X140636819Y-48787584D01*
X140603334Y-48726261D01*
X140600500Y-48699903D01*
X140600500Y-46336201D01*
X140600500Y-46336199D01*
X140559577Y-46183472D01*
X140559573Y-46183465D01*
X140480524Y-46046546D01*
X140480521Y-46046542D01*
X140480520Y-46046540D01*
X140368716Y-45934736D01*
X140368715Y-45934735D01*
X140364385Y-45930405D01*
X140364374Y-45930395D01*
X137072334Y-42638355D01*
X137072332Y-42638352D01*
X136953461Y-42519481D01*
X136953460Y-42519480D01*
X136866648Y-42469360D01*
X136866648Y-42469359D01*
X136866644Y-42469358D01*
X136816529Y-42440423D01*
X136663801Y-42399499D01*
X136505687Y-42399499D01*
X136498091Y-42399499D01*
X136498075Y-42399500D01*
X133501926Y-42399500D01*
X133501910Y-42399499D01*
X133494314Y-42399499D01*
X133336199Y-42399499D01*
X133259835Y-42419961D01*
X133183470Y-42440423D01*
X133183465Y-42440426D01*
X133046546Y-42519475D01*
X133046538Y-42519481D01*
X132702840Y-42863181D01*
X132641517Y-42896666D01*
X132615159Y-42899500D01*
X131800097Y-42899500D01*
X131733058Y-42879815D01*
X131712416Y-42863181D01*
X129987590Y-41138355D01*
X129987588Y-41138352D01*
X129868717Y-41019481D01*
X129868716Y-41019480D01*
X129781904Y-40969360D01*
X129781904Y-40969359D01*
X129781900Y-40969358D01*
X129731785Y-40940423D01*
X129579057Y-40899499D01*
X129420943Y-40899499D01*
X129413347Y-40899499D01*
X129413331Y-40899500D01*
X125086670Y-40899500D01*
X125086654Y-40899499D01*
X125079058Y-40899499D01*
X124920943Y-40899499D01*
X124844579Y-40919961D01*
X124768214Y-40940423D01*
X124768209Y-40940426D01*
X124631290Y-41019475D01*
X124631282Y-41019481D01*
X124387582Y-41263181D01*
X124326259Y-41296666D01*
X124299901Y-41299500D01*
X123599998Y-41299500D01*
X123599980Y-41299501D01*
X123497203Y-41310000D01*
X123497200Y-41310001D01*
X123330668Y-41365185D01*
X123330663Y-41365187D01*
X123181342Y-41457289D01*
X123057289Y-41581342D01*
X122965187Y-41730663D01*
X122965186Y-41730666D01*
X122910001Y-41897203D01*
X122910001Y-41897204D01*
X122910000Y-41897204D01*
X122899500Y-41999983D01*
X122899500Y-43000001D01*
X122899501Y-43000019D01*
X122910000Y-43102796D01*
X122910001Y-43102799D01*
X122965115Y-43269119D01*
X122965186Y-43269334D01*
X123057288Y-43418656D01*
X123181344Y-43542712D01*
X123330666Y-43634814D01*
X123497203Y-43689999D01*
X123599991Y-43700500D01*
X124400008Y-43700499D01*
X124400016Y-43700498D01*
X124400019Y-43700498D01*
X124456302Y-43694748D01*
X124502797Y-43689999D01*
X124669334Y-43634814D01*
X124818656Y-43542712D01*
X124912675Y-43448692D01*
X124973994Y-43415210D01*
X125043686Y-43420194D01*
X125088034Y-43448695D01*
X125181654Y-43542315D01*
X125330875Y-43634356D01*
X125330880Y-43634358D01*
X125497302Y-43689505D01*
X125497309Y-43689506D01*
X125600019Y-43699999D01*
X125749999Y-43699999D01*
X126250000Y-43699999D01*
X126399972Y-43699999D01*
X126399986Y-43699998D01*
X126502697Y-43689505D01*
X126669119Y-43634358D01*
X126669124Y-43634356D01*
X126818345Y-43542315D01*
X126942315Y-43418345D01*
X127034356Y-43269124D01*
X127034358Y-43269119D01*
X127089505Y-43102697D01*
X127089506Y-43102690D01*
X127099999Y-42999986D01*
X127100000Y-42999973D01*
X127100000Y-42750000D01*
X126250000Y-42750000D01*
X126250000Y-43699999D01*
X125749999Y-43699999D01*
X125750000Y-43699998D01*
X125750000Y-42624000D01*
X125769685Y-42556961D01*
X125822489Y-42511206D01*
X125874000Y-42500000D01*
X126000000Y-42500000D01*
X126000000Y-42374000D01*
X126019685Y-42306961D01*
X126072489Y-42261206D01*
X126124000Y-42250000D01*
X127099999Y-42250000D01*
X127099999Y-42224500D01*
X127119684Y-42157461D01*
X127172488Y-42111706D01*
X127223999Y-42100500D01*
X129199903Y-42100500D01*
X129266942Y-42120185D01*
X129287584Y-42136819D01*
X131015139Y-43864374D01*
X131015149Y-43864385D01*
X131019479Y-43868715D01*
X131019480Y-43868716D01*
X131131284Y-43980520D01*
X131199122Y-44019685D01*
X131218095Y-44030639D01*
X131218097Y-44030641D01*
X131256151Y-44052611D01*
X131268215Y-44059577D01*
X131420943Y-44100500D01*
X131579057Y-44100500D01*
X132776001Y-44100500D01*
X132843040Y-44120185D01*
X132888795Y-44172989D01*
X132900001Y-44224500D01*
X132900001Y-44499986D01*
X132910494Y-44602697D01*
X132965641Y-44769119D01*
X132965643Y-44769124D01*
X133057684Y-44918345D01*
X133181654Y-45042315D01*
X133330875Y-45134356D01*
X133330880Y-45134358D01*
X133497302Y-45189505D01*
X133497309Y-45189506D01*
X133600019Y-45199999D01*
X133749999Y-45199999D01*
X133750000Y-45199998D01*
X133750000Y-44124000D01*
X133769685Y-44056961D01*
X133822489Y-44011206D01*
X133874000Y-44000000D01*
X134126000Y-44000000D01*
X134193039Y-44019685D01*
X134238794Y-44072489D01*
X134250000Y-44124000D01*
X134250000Y-45199999D01*
X134399972Y-45199999D01*
X134399986Y-45199998D01*
X134502697Y-45189505D01*
X134669119Y-45134358D01*
X134669124Y-45134356D01*
X134818342Y-45042317D01*
X134911964Y-44948695D01*
X134973287Y-44915210D01*
X135042979Y-44920194D01*
X135087327Y-44948695D01*
X135181344Y-45042712D01*
X135330666Y-45134814D01*
X135497203Y-45189999D01*
X135599991Y-45200500D01*
X136400008Y-45200499D01*
X136400016Y-45200498D01*
X136400019Y-45200498D01*
X136456302Y-45194748D01*
X136502797Y-45189999D01*
X136669334Y-45134814D01*
X136818656Y-45042712D01*
X136918388Y-44942979D01*
X136979707Y-44909497D01*
X137049399Y-44914481D01*
X137093747Y-44942982D01*
X138363181Y-46212416D01*
X138396666Y-46273739D01*
X138399500Y-46300097D01*
X138399500Y-46754091D01*
X138379815Y-46821130D01*
X138335731Y-46859641D01*
X138336813Y-46861395D01*
X138330667Y-46865185D01*
X138330666Y-46865186D01*
X138232419Y-46925784D01*
X138181342Y-46957289D01*
X138087681Y-47050951D01*
X138026358Y-47084436D01*
X137956666Y-47079452D01*
X137912319Y-47050951D01*
X137818657Y-46957289D01*
X137818656Y-46957288D01*
X137669334Y-46865186D01*
X137502797Y-46810001D01*
X137502795Y-46810000D01*
X137400010Y-46799500D01*
X136599998Y-46799500D01*
X136599980Y-46799501D01*
X136497203Y-46810000D01*
X136497200Y-46810001D01*
X136330668Y-46865185D01*
X136330663Y-46865187D01*
X136181342Y-46957289D01*
X136057289Y-47081342D01*
X135965187Y-47230663D01*
X135965186Y-47230666D01*
X135910001Y-47397203D01*
X135910001Y-47397204D01*
X135910000Y-47397204D01*
X135899500Y-47499983D01*
X135899500Y-48500001D01*
X135899501Y-48500019D01*
X135910000Y-48602796D01*
X135910001Y-48602798D01*
X135965185Y-48769331D01*
X135965187Y-48769336D01*
X135999999Y-48825776D01*
X136057288Y-48918656D01*
X136181344Y-49042712D01*
X136330666Y-49134814D01*
X136497203Y-49189999D01*
X136599991Y-49200500D01*
X137400008Y-49200499D01*
X137400016Y-49200498D01*
X137400019Y-49200498D01*
X137423896Y-49198058D01*
X137502797Y-49189999D01*
X137502804Y-49189996D01*
X137509296Y-49188607D01*
X137578972Y-49193818D01*
X137622939Y-49222174D01*
X137766038Y-49365274D01*
X137799522Y-49426596D01*
X137794538Y-49496288D01*
X137777626Y-49527260D01*
X137768235Y-49539806D01*
X137712303Y-49581680D01*
X137668965Y-49589500D01*
X134990097Y-49589500D01*
X134923058Y-49569815D01*
X134902416Y-49553181D01*
X134442982Y-49093747D01*
X134409497Y-49032424D01*
X134414481Y-48962732D01*
X134438854Y-48924816D01*
X134438231Y-48924324D01*
X134442707Y-48918661D01*
X134442707Y-48918660D01*
X134442712Y-48918656D01*
X134534814Y-48769334D01*
X134589999Y-48602797D01*
X134600500Y-48500009D01*
X134600499Y-47499992D01*
X134589999Y-47397203D01*
X134534814Y-47230666D01*
X134442712Y-47081344D01*
X134318656Y-46957288D01*
X134169334Y-46865186D01*
X134002797Y-46810001D01*
X134002795Y-46810000D01*
X133900010Y-46799500D01*
X133099998Y-46799500D01*
X133099980Y-46799501D01*
X132997203Y-46810000D01*
X132997200Y-46810001D01*
X132830668Y-46865185D01*
X132830663Y-46865187D01*
X132681342Y-46957289D01*
X132587681Y-47050951D01*
X132526358Y-47084436D01*
X132456666Y-47079452D01*
X132412319Y-47050951D01*
X132318657Y-46957289D01*
X132318656Y-46957288D01*
X132169334Y-46865186D01*
X132002797Y-46810001D01*
X132002795Y-46810000D01*
X131900010Y-46799500D01*
X131099998Y-46799500D01*
X131099980Y-46799501D01*
X130997203Y-46810000D01*
X130997200Y-46810001D01*
X130830668Y-46865185D01*
X130830663Y-46865187D01*
X130681342Y-46957289D01*
X130557289Y-47081342D01*
X130465187Y-47230663D01*
X130465186Y-47230666D01*
X130410001Y-47397203D01*
X130410001Y-47397204D01*
X130410000Y-47397204D01*
X130399500Y-47499983D01*
X130399500Y-48199902D01*
X130379815Y-48266941D01*
X130363181Y-48287583D01*
X130181286Y-48469478D01*
X130181284Y-48469480D01*
X130150763Y-48500001D01*
X130069481Y-48581282D01*
X130069480Y-48581284D01*
X130057060Y-48602797D01*
X129990423Y-48718215D01*
X129949499Y-48870943D01*
X129949499Y-48870945D01*
X129949499Y-49039046D01*
X129949500Y-49039059D01*
X129949500Y-50735500D01*
X129929815Y-50802539D01*
X129877011Y-50848294D01*
X129825500Y-50859500D01*
X124626670Y-50859500D01*
X124626654Y-50859499D01*
X124619058Y-50859499D01*
X124460943Y-50859499D01*
X124384579Y-50879961D01*
X124308214Y-50900423D01*
X124308209Y-50900426D01*
X124171290Y-50979475D01*
X124171282Y-50979481D01*
X122619481Y-52531282D01*
X122619477Y-52531287D01*
X122577662Y-52603715D01*
X122577661Y-52603714D01*
X122540424Y-52668211D01*
X122540420Y-52668220D01*
X122529770Y-52707969D01*
X122493405Y-52767629D01*
X122430558Y-52798157D01*
X122403197Y-52799060D01*
X122403167Y-52799661D01*
X122400013Y-52799500D01*
X122400009Y-52799500D01*
X122400004Y-52799500D01*
X121599998Y-52799500D01*
X121599980Y-52799501D01*
X121497203Y-52810000D01*
X121497200Y-52810001D01*
X121330668Y-52865185D01*
X121330663Y-52865187D01*
X121181342Y-52957289D01*
X121057289Y-53081342D01*
X120965187Y-53230663D01*
X120965185Y-53230668D01*
X120965115Y-53230880D01*
X120910001Y-53397203D01*
X120910001Y-53397204D01*
X120910000Y-53397204D01*
X120899500Y-53499983D01*
X120899500Y-54199902D01*
X120879815Y-54266941D01*
X120863181Y-54287583D01*
X120619481Y-54531282D01*
X120619479Y-54531285D01*
X120569361Y-54618094D01*
X120569359Y-54618096D01*
X120540425Y-54668209D01*
X120540424Y-54668210D01*
X120530819Y-54704056D01*
X120499499Y-54820943D01*
X120499499Y-54820945D01*
X120499499Y-54989046D01*
X120499500Y-54989059D01*
X120499500Y-61013330D01*
X120499499Y-61013348D01*
X120499499Y-61179054D01*
X120499498Y-61179054D01*
X120540423Y-61331785D01*
X120569358Y-61381900D01*
X120569359Y-61381904D01*
X120569360Y-61381904D01*
X120619479Y-61468714D01*
X120619481Y-61468717D01*
X120738349Y-61587585D01*
X120738355Y-61587590D01*
X120863181Y-61712416D01*
X120896666Y-61773739D01*
X120899500Y-61800097D01*
X120899500Y-62500001D01*
X120899501Y-62500019D01*
X120910000Y-62602796D01*
X120910001Y-62602799D01*
X120965185Y-62769331D01*
X120965187Y-62769336D01*
X120999999Y-62825776D01*
X121057288Y-62918656D01*
X121181344Y-63042712D01*
X121330666Y-63134814D01*
X121497203Y-63189999D01*
X121599991Y-63200500D01*
X122400008Y-63200499D01*
X122400016Y-63200498D01*
X122400019Y-63200498D01*
X122456302Y-63194748D01*
X122502797Y-63189999D01*
X122669334Y-63134814D01*
X122818656Y-63042712D01*
X122912319Y-62949049D01*
X122973642Y-62915564D01*
X123043334Y-62920548D01*
X123087681Y-62949049D01*
X123181344Y-63042712D01*
X123330666Y-63134814D01*
X123497203Y-63189999D01*
X123599991Y-63200500D01*
X124400008Y-63200499D01*
X124400016Y-63200498D01*
X124400019Y-63200498D01*
X124456302Y-63194748D01*
X124502797Y-63189999D01*
X124669334Y-63134814D01*
X124818656Y-63042712D01*
X124942712Y-62918656D01*
X125034814Y-62769334D01*
X125089999Y-62602797D01*
X125100500Y-62500009D01*
X125100500Y-62224500D01*
X125120185Y-62157461D01*
X125172989Y-62111706D01*
X125224500Y-62100500D01*
X130699903Y-62100500D01*
X130766942Y-62120185D01*
X130787584Y-62136819D01*
X131282340Y-62631575D01*
X131315825Y-62692898D01*
X131310841Y-62762590D01*
X131296234Y-62790379D01*
X131245963Y-62862173D01*
X131146098Y-63076335D01*
X131146094Y-63076344D01*
X131084938Y-63304586D01*
X131084936Y-63304596D01*
X131064341Y-63539999D01*
X131064341Y-63540000D01*
X131084936Y-63775403D01*
X131084938Y-63775413D01*
X131146094Y-64003655D01*
X131146096Y-64003659D01*
X131146097Y-64003663D01*
X131226004Y-64175023D01*
X131245965Y-64217830D01*
X131245967Y-64217834D01*
X131354281Y-64372521D01*
X131381505Y-64411401D01*
X131548599Y-64578495D01*
X131635452Y-64639310D01*
X131679076Y-64693887D01*
X131686269Y-64763386D01*
X131654747Y-64825740D01*
X131594517Y-64861154D01*
X131564328Y-64864885D01*
X118502108Y-64864885D01*
X118435069Y-64845200D01*
X118389314Y-64792396D01*
X118379795Y-64761270D01*
X118175798Y-63537289D01*
X117985584Y-62396003D01*
X117986305Y-62351301D01*
X118007065Y-62247500D01*
X118456233Y-60001659D01*
X118460183Y-59986784D01*
X119468730Y-56961146D01*
X119474278Y-56868716D01*
X119476626Y-56829599D01*
X119450206Y-56700490D01*
X119415603Y-56631284D01*
X119391270Y-56582618D01*
X119391269Y-56582617D01*
X119389490Y-56579058D01*
X119386802Y-56573682D01*
X119386799Y-56573677D01*
X118455119Y-54710317D01*
X118444981Y-54681762D01*
X118441971Y-54668215D01*
X117486348Y-50367917D01*
X117484642Y-50323492D01*
X117954214Y-47036486D01*
X117966058Y-46998573D01*
X119914725Y-43101238D01*
X119917191Y-43096561D01*
X119942652Y-43050699D01*
X119942654Y-43050692D01*
X119945636Y-43043138D01*
X119945745Y-43043181D01*
X119947660Y-43038003D01*
X119947550Y-43037965D01*
X119950205Y-43030281D01*
X119950206Y-43030280D01*
X119960718Y-42978902D01*
X119961896Y-42973719D01*
X120436095Y-41076922D01*
X120450064Y-41043201D01*
X120464297Y-41019480D01*
X121808687Y-38778829D01*
X121859558Y-38731720D01*
X123674028Y-37824484D01*
X123683254Y-37820334D01*
X123720663Y-37805320D01*
X123728323Y-37799574D01*
X123747273Y-37787862D01*
X123755843Y-37783578D01*
X123785998Y-37756837D01*
X123793847Y-37750431D01*
X125758417Y-36277004D01*
X125764446Y-36272759D01*
X125803835Y-36246753D01*
X125805589Y-36244774D01*
X125823982Y-36227831D01*
X125826091Y-36226250D01*
X125855233Y-36189121D01*
X125859958Y-36183459D01*
X125891270Y-36148151D01*
X125892455Y-36145779D01*
X125905824Y-36124671D01*
X125907461Y-36122587D01*
X125925994Y-36079198D01*
X125929111Y-36072466D01*
X126391150Y-35148388D01*
X126404473Y-35127569D01*
X126405062Y-35126595D01*
X126405065Y-35126592D01*
X126425165Y-35080712D01*
X126427804Y-35075081D01*
X126450206Y-35030280D01*
X126450207Y-35030274D01*
X126450208Y-35030273D01*
X126450582Y-35029192D01*
X126457641Y-35006952D01*
X126457948Y-35005892D01*
X126457948Y-35005888D01*
X126457950Y-35005885D01*
X126465489Y-34956377D01*
X126466581Y-34950250D01*
X126476626Y-34901171D01*
X126476626Y-34901166D01*
X126476705Y-34900060D01*
X126477767Y-34876807D01*
X126477790Y-34875610D01*
X126477792Y-34875603D01*
X126472260Y-34825819D01*
X126471730Y-34819611D01*
X126468730Y-34769624D01*
X126468729Y-34769621D01*
X126468520Y-34768535D01*
X126463208Y-34744354D01*
X125974335Y-30344489D01*
X125973577Y-30330796D01*
X125973577Y-30124061D01*
X125993262Y-30057022D01*
X126009896Y-30036380D01*
X126144072Y-29902204D01*
X126205395Y-29868719D01*
X126231753Y-29865885D01*
X126325653Y-29865885D01*
X126381107Y-29878976D01*
G37*
G04 #@! TD.AperFunction*
G04 #@! TA.AperFunction,Conductor*
G36*
X133774855Y-61666546D02*
G01*
X133791575Y-61685842D01*
X133921501Y-61871396D01*
X133921506Y-61871402D01*
X134088597Y-62038493D01*
X134088603Y-62038498D01*
X134274158Y-62168425D01*
X134317783Y-62223002D01*
X134324977Y-62292500D01*
X134293454Y-62354855D01*
X134274158Y-62371575D01*
X134088597Y-62501505D01*
X133921505Y-62668597D01*
X133791575Y-62854158D01*
X133736998Y-62897783D01*
X133667500Y-62904977D01*
X133605145Y-62873454D01*
X133588425Y-62854158D01*
X133458494Y-62668597D01*
X133291402Y-62501506D01*
X133291396Y-62501501D01*
X133105842Y-62371575D01*
X133062217Y-62316998D01*
X133055023Y-62247500D01*
X133086546Y-62185145D01*
X133105842Y-62168425D01*
X133150980Y-62136819D01*
X133291401Y-62038495D01*
X133458495Y-61871401D01*
X133588425Y-61685842D01*
X133643002Y-61642217D01*
X133712500Y-61635023D01*
X133774855Y-61666546D01*
G37*
G04 #@! TD.AperFunction*
G04 #@! TA.AperFunction,Conductor*
G36*
X129761699Y-57690046D02*
G01*
X129806047Y-57718547D01*
X129837500Y-57750000D01*
X130801000Y-57750000D01*
X130868039Y-57769685D01*
X130913794Y-57822489D01*
X130925000Y-57874000D01*
X130925000Y-58000000D01*
X131051000Y-58000000D01*
X131118039Y-58019685D01*
X131163794Y-58072489D01*
X131175000Y-58124000D01*
X131175000Y-59224999D01*
X131312472Y-59224999D01*
X131312486Y-59224998D01*
X131415197Y-59214505D01*
X131581619Y-59159358D01*
X131581624Y-59159356D01*
X131730845Y-59067315D01*
X131854818Y-58943342D01*
X131856665Y-58940348D01*
X131858469Y-58938724D01*
X131859298Y-58937677D01*
X131859476Y-58937818D01*
X131908610Y-58893621D01*
X131977573Y-58882396D01*
X132041656Y-58910236D01*
X132067743Y-58940341D01*
X132069788Y-58943656D01*
X132193844Y-59067712D01*
X132343166Y-59159814D01*
X132509703Y-59214999D01*
X132612491Y-59225500D01*
X133387508Y-59225499D01*
X133387516Y-59225498D01*
X133387519Y-59225498D01*
X133443802Y-59219748D01*
X133490297Y-59214999D01*
X133656834Y-59159814D01*
X133806156Y-59067712D01*
X133930212Y-58943656D01*
X134022314Y-58794334D01*
X134058379Y-58685494D01*
X134098152Y-58628051D01*
X134162667Y-58601228D01*
X134176085Y-58600500D01*
X134420943Y-58600500D01*
X135420943Y-58600500D01*
X136725500Y-58600500D01*
X136792539Y-58620185D01*
X136838294Y-58672989D01*
X136849500Y-58724500D01*
X136849500Y-59525500D01*
X136829815Y-59592539D01*
X136777011Y-59638294D01*
X136725501Y-59649500D01*
X136602130Y-59649500D01*
X136602123Y-59649501D01*
X136542516Y-59655908D01*
X136407671Y-59706202D01*
X136407664Y-59706206D01*
X136292455Y-59792452D01*
X136292452Y-59792455D01*
X136206206Y-59907664D01*
X136206203Y-59907669D01*
X136157189Y-60039083D01*
X136115317Y-60095016D01*
X136049853Y-60119433D01*
X135981580Y-60104581D01*
X135953326Y-60083430D01*
X135831402Y-59961506D01*
X135831395Y-59961501D01*
X135637834Y-59825967D01*
X135637830Y-59825965D01*
X135584314Y-59801010D01*
X135423663Y-59726097D01*
X135423659Y-59726096D01*
X135423655Y-59726094D01*
X135195413Y-59664938D01*
X135195403Y-59664936D01*
X134960001Y-59644341D01*
X134959999Y-59644341D01*
X134724596Y-59664936D01*
X134724586Y-59664938D01*
X134496344Y-59726094D01*
X134496335Y-59726098D01*
X134282171Y-59825964D01*
X134282169Y-59825965D01*
X134088597Y-59961505D01*
X133921505Y-60128597D01*
X133791575Y-60314158D01*
X133736998Y-60357783D01*
X133667500Y-60364977D01*
X133605145Y-60333454D01*
X133588425Y-60314158D01*
X133458494Y-60128597D01*
X133291402Y-59961506D01*
X133291395Y-59961501D01*
X133097834Y-59825967D01*
X133097830Y-59825965D01*
X133044314Y-59801010D01*
X132883663Y-59726097D01*
X132883659Y-59726096D01*
X132883655Y-59726094D01*
X132655413Y-59664938D01*
X132655403Y-59664936D01*
X132420001Y-59644341D01*
X132419999Y-59644341D01*
X132184596Y-59664936D01*
X132184586Y-59664938D01*
X131956344Y-59726094D01*
X131956335Y-59726098D01*
X131742171Y-59825964D01*
X131742169Y-59825965D01*
X131548597Y-59961505D01*
X131381506Y-60128596D01*
X131245965Y-60322170D01*
X131245962Y-60322175D01*
X131243289Y-60327909D01*
X131197115Y-60380346D01*
X131130909Y-60399500D01*
X125163401Y-60399500D01*
X125096362Y-60379815D01*
X125050607Y-60327011D01*
X125040663Y-60257853D01*
X125045695Y-60236496D01*
X125089999Y-60102797D01*
X125100500Y-60000009D01*
X125100499Y-58999992D01*
X125094712Y-58943345D01*
X125089999Y-58897203D01*
X125085092Y-58882396D01*
X125045694Y-58763502D01*
X125043293Y-58693676D01*
X125079024Y-58633634D01*
X125141545Y-58602441D01*
X125163401Y-58600500D01*
X128413331Y-58600500D01*
X128413347Y-58600501D01*
X128420943Y-58600501D01*
X128579054Y-58600501D01*
X128579057Y-58600501D01*
X128731785Y-58559577D01*
X128791660Y-58525008D01*
X128791698Y-58524986D01*
X129837501Y-58524986D01*
X129847994Y-58627697D01*
X129903141Y-58794119D01*
X129903143Y-58794124D01*
X129995184Y-58943345D01*
X130119154Y-59067315D01*
X130268375Y-59159356D01*
X130268380Y-59159358D01*
X130434802Y-59214505D01*
X130434809Y-59214506D01*
X130537519Y-59224999D01*
X130674999Y-59224999D01*
X130675000Y-59224998D01*
X130675000Y-58250000D01*
X129837501Y-58250000D01*
X129837501Y-58524986D01*
X128791698Y-58524986D01*
X128868716Y-58480520D01*
X128980520Y-58368716D01*
X128980520Y-58368714D01*
X128990724Y-58358511D01*
X128990728Y-58358506D01*
X129630689Y-57718544D01*
X129692008Y-57685062D01*
X129761699Y-57690046D01*
G37*
G04 #@! TD.AperFunction*
G04 #@! TA.AperFunction,Conductor*
G36*
X130332756Y-52080185D02*
G01*
X130378511Y-52132989D01*
X130388455Y-52202147D01*
X130381899Y-52227833D01*
X130355908Y-52297517D01*
X130349861Y-52353768D01*
X130349501Y-52357123D01*
X130349500Y-52357135D01*
X130349500Y-52654902D01*
X130329815Y-52721941D01*
X130313181Y-52742583D01*
X129519481Y-53536282D01*
X129519477Y-53536287D01*
X129508386Y-53555499D01*
X129501448Y-53567517D01*
X129440423Y-53673215D01*
X129399499Y-53825943D01*
X129399499Y-53825945D01*
X129399499Y-53994046D01*
X129399500Y-53994059D01*
X129399500Y-54754091D01*
X129379815Y-54821130D01*
X129335731Y-54859641D01*
X129336813Y-54861395D01*
X129330667Y-54865185D01*
X129330666Y-54865186D01*
X129263468Y-54906634D01*
X129181342Y-54957289D01*
X129057289Y-55081342D01*
X128965187Y-55230663D01*
X128965186Y-55230666D01*
X128910001Y-55397203D01*
X128910001Y-55397204D01*
X128910000Y-55397204D01*
X128899500Y-55499983D01*
X128899500Y-55499996D01*
X128899501Y-56500000D01*
X128899501Y-56500019D01*
X128910000Y-56602795D01*
X128920282Y-56633824D01*
X128922682Y-56703652D01*
X128890256Y-56760507D01*
X128287584Y-57363181D01*
X128226261Y-57396666D01*
X128199903Y-57399500D01*
X125162875Y-57399500D01*
X125095836Y-57379815D01*
X125050081Y-57327011D01*
X125040137Y-57257853D01*
X125045169Y-57236496D01*
X125089505Y-57102697D01*
X125089506Y-57102690D01*
X125099999Y-56999986D01*
X125100000Y-56999973D01*
X125100000Y-56750000D01*
X124124000Y-56750000D01*
X124056961Y-56730315D01*
X124011206Y-56677511D01*
X124000000Y-56626000D01*
X124000000Y-56500000D01*
X123874000Y-56500000D01*
X123806961Y-56480315D01*
X123761206Y-56427511D01*
X123750000Y-56376000D01*
X123750000Y-56250000D01*
X124250000Y-56250000D01*
X125099999Y-56250000D01*
X125099999Y-56000028D01*
X125099998Y-56000013D01*
X125089505Y-55897302D01*
X125034358Y-55730880D01*
X125034356Y-55730875D01*
X124942315Y-55581654D01*
X124818345Y-55457684D01*
X124669124Y-55365643D01*
X124662579Y-55362592D01*
X124663894Y-55359771D01*
X124617915Y-55327947D01*
X124591083Y-55263435D01*
X124603388Y-55194657D01*
X124650924Y-55143451D01*
X124662855Y-55138001D01*
X124662579Y-55137408D01*
X124669124Y-55134356D01*
X124818345Y-55042315D01*
X124942315Y-54918345D01*
X125034356Y-54769124D01*
X125034358Y-54769119D01*
X125089505Y-54602697D01*
X125089506Y-54602690D01*
X125099999Y-54499986D01*
X125100000Y-54499973D01*
X125100000Y-54250000D01*
X124250000Y-54250000D01*
X124250000Y-56250000D01*
X123750000Y-56250000D01*
X123750000Y-54124000D01*
X123769685Y-54056961D01*
X123822489Y-54011206D01*
X123874000Y-54000000D01*
X124000000Y-54000000D01*
X124000000Y-53874000D01*
X124019685Y-53806961D01*
X124072489Y-53761206D01*
X124124000Y-53750000D01*
X125099999Y-53750000D01*
X125099999Y-53500028D01*
X125099998Y-53500013D01*
X125089505Y-53397302D01*
X125034358Y-53230880D01*
X125034356Y-53230875D01*
X124942315Y-53081654D01*
X124818345Y-52957684D01*
X124669124Y-52865643D01*
X124669119Y-52865641D01*
X124502697Y-52810494D01*
X124502690Y-52810493D01*
X124399986Y-52800000D01*
X124348597Y-52800000D01*
X124281558Y-52780315D01*
X124235803Y-52727511D01*
X124225859Y-52658353D01*
X124254884Y-52594797D01*
X124260909Y-52588326D01*
X124752417Y-52096819D01*
X124813740Y-52063334D01*
X124840098Y-52060500D01*
X130265717Y-52060500D01*
X130332756Y-52080185D01*
G37*
G04 #@! TD.AperFunction*
G04 #@! TA.AperFunction,Conductor*
G36*
X133186170Y-49551251D02*
G01*
X133230517Y-49579752D01*
X134205139Y-50554374D01*
X134205149Y-50554385D01*
X134209479Y-50558715D01*
X134209480Y-50558716D01*
X134321284Y-50670520D01*
X134404214Y-50718399D01*
X134458215Y-50749577D01*
X134610943Y-50790500D01*
X134769057Y-50790500D01*
X136725500Y-50790500D01*
X136792539Y-50810185D01*
X136838294Y-50862989D01*
X136849500Y-50914500D01*
X136849500Y-57275500D01*
X136829815Y-57342539D01*
X136777011Y-57388294D01*
X136725500Y-57399500D01*
X134176085Y-57399500D01*
X134109046Y-57379815D01*
X134063291Y-57327011D01*
X134058379Y-57314504D01*
X134022314Y-57205666D01*
X133930212Y-57056344D01*
X133806156Y-56932288D01*
X133656834Y-56840186D01*
X133490297Y-56785001D01*
X133490295Y-56785000D01*
X133387516Y-56774500D01*
X133387509Y-56774500D01*
X133209732Y-56774500D01*
X133142693Y-56754815D01*
X133096938Y-56702011D01*
X133086994Y-56632853D01*
X133089957Y-56618406D01*
X133100501Y-56579058D01*
X133100501Y-56420943D01*
X133100501Y-56409123D01*
X133100499Y-56409101D01*
X133100499Y-55499998D01*
X133100498Y-55499981D01*
X133089999Y-55397203D01*
X133089998Y-55397200D01*
X133064729Y-55320943D01*
X133034814Y-55230666D01*
X132942712Y-55081344D01*
X132818656Y-54957288D01*
X132812989Y-54952807D01*
X132814193Y-54951284D01*
X132774037Y-54906634D01*
X132762819Y-54837671D01*
X132790667Y-54773590D01*
X132811551Y-54753783D01*
X132907190Y-54682186D01*
X132993350Y-54567093D01*
X132993354Y-54567086D01*
X133043596Y-54432379D01*
X133043598Y-54432372D01*
X133049999Y-54372844D01*
X133050000Y-54372827D01*
X133050000Y-54250000D01*
X131824000Y-54250000D01*
X131756961Y-54230315D01*
X131711206Y-54177511D01*
X131700000Y-54126000D01*
X131700000Y-53874000D01*
X131719685Y-53806961D01*
X131772489Y-53761206D01*
X131824000Y-53750000D01*
X133050000Y-53750000D01*
X133050000Y-53627172D01*
X133049999Y-53627155D01*
X133043598Y-53567627D01*
X133043597Y-53567623D01*
X132993349Y-53432904D01*
X132989101Y-53425123D01*
X132992360Y-53423343D01*
X132974046Y-53374374D01*
X132988836Y-53306087D01*
X132990023Y-53304239D01*
X132993793Y-53297335D01*
X132993792Y-53297335D01*
X132993796Y-53297331D01*
X133044091Y-53162483D01*
X133050500Y-53102873D01*
X133050499Y-52357128D01*
X133044091Y-52297517D01*
X133018101Y-52227833D01*
X132993797Y-52162670D01*
X132989547Y-52154888D01*
X132992757Y-52153134D01*
X132974361Y-52104001D01*
X132989127Y-52035709D01*
X132989752Y-52034736D01*
X132993797Y-52027329D01*
X133005052Y-51997150D01*
X133044091Y-51892483D01*
X133050500Y-51832873D01*
X133050499Y-51087128D01*
X133044091Y-51027517D01*
X133034871Y-51002797D01*
X132993797Y-50892670D01*
X132989547Y-50884888D01*
X132992757Y-50883134D01*
X132974361Y-50834001D01*
X132989127Y-50765709D01*
X132989752Y-50764736D01*
X132993797Y-50757329D01*
X133026174Y-50670520D01*
X133044091Y-50622483D01*
X133050500Y-50562873D01*
X133050499Y-49817128D01*
X133044091Y-49757517D01*
X133026653Y-49710765D01*
X133021670Y-49641075D01*
X133055155Y-49579752D01*
X133116478Y-49546267D01*
X133186170Y-49551251D01*
G37*
G04 #@! TD.AperFunction*
G04 #@! TA.AperFunction,Conductor*
G36*
X132543334Y-48920548D02*
G01*
X132587681Y-48949049D01*
X132681344Y-49042712D01*
X132830666Y-49134814D01*
X132859134Y-49144247D01*
X132916580Y-49184019D01*
X132937108Y-49224359D01*
X132937312Y-49224275D01*
X132938389Y-49226874D01*
X132939905Y-49229854D01*
X132940421Y-49231782D01*
X132940422Y-49231783D01*
X132947970Y-49244857D01*
X132964441Y-49312758D01*
X132941588Y-49378784D01*
X132886667Y-49421974D01*
X132817113Y-49428615D01*
X132797249Y-49423038D01*
X132657482Y-49370908D01*
X132657483Y-49370908D01*
X132597883Y-49364501D01*
X132597881Y-49364500D01*
X132597873Y-49364500D01*
X132597865Y-49364500D01*
X132234192Y-49364500D01*
X132167153Y-49344815D01*
X132121398Y-49292011D01*
X132111454Y-49222853D01*
X132140479Y-49159297D01*
X132169095Y-49134961D01*
X132169332Y-49134814D01*
X132169334Y-49134814D01*
X132318656Y-49042712D01*
X132412319Y-48949049D01*
X132473642Y-48915564D01*
X132543334Y-48920548D01*
G37*
G04 #@! TD.AperFunction*
M02*
