G04 #@! TF.GenerationSoftware,KiCad,Pcbnew,8.0.7*
G04 #@! TF.CreationDate,2025-01-23T10:02:08+01:00*
G04 #@! TF.ProjectId,hackaday-eu-2025-sao-doge,6861636b-6164-4617-992d-65752d323032,rev?*
G04 #@! TF.SameCoordinates,Original*
G04 #@! TF.FileFunction,Soldermask,Top*
G04 #@! TF.FilePolarity,Negative*
%FSLAX46Y46*%
G04 Gerber Fmt 4.6, Leading zero omitted, Abs format (unit mm)*
G04 Created by KiCad (PCBNEW 8.0.7) date 2025-01-23 10:02:08*
%MOMM*%
%LPD*%
G01*
G04 APERTURE LIST*
G04 Aperture macros list*
%AMRoundRect*
0 Rectangle with rounded corners*
0 $1 Rounding radius*
0 $2 $3 $4 $5 $6 $7 $8 $9 X,Y pos of 4 corners*
0 Add a 4 corners polygon primitive as box body*
4,1,4,$2,$3,$4,$5,$6,$7,$8,$9,$2,$3,0*
0 Add four circle primitives for the rounded corners*
1,1,$1+$1,$2,$3*
1,1,$1+$1,$4,$5*
1,1,$1+$1,$6,$7*
1,1,$1+$1,$8,$9*
0 Add four rect primitives between the rounded corners*
20,1,$1+$1,$2,$3,$4,$5,0*
20,1,$1+$1,$4,$5,$6,$7,0*
20,1,$1+$1,$6,$7,$8,$9,0*
20,1,$1+$1,$8,$9,$2,$3,0*%
G04 Aperture macros list end*
%ADD10C,0.650000*%
%ADD11RoundRect,0.250000X-0.350000X-0.450000X0.350000X-0.450000X0.350000X0.450000X-0.350000X0.450000X0*%
%ADD12RoundRect,0.250000X0.350000X0.450000X-0.350000X0.450000X-0.350000X-0.450000X0.350000X-0.450000X0*%
%ADD13R,1.700000X1.700000*%
%ADD14O,1.700000X1.700000*%
%ADD15R,1.700000X0.650000*%
%ADD16RoundRect,0.250000X0.450000X-0.350000X0.450000X0.350000X-0.450000X0.350000X-0.450000X-0.350000X0*%
%ADD17RoundRect,0.250000X0.337500X0.475000X-0.337500X0.475000X-0.337500X-0.475000X0.337500X-0.475000X0*%
G04 APERTURE END LIST*
D10*
X135325000Y-44000000D02*
G75*
G02*
X134675000Y-44000000I-325000J0D01*
G01*
X134675000Y-44000000D02*
G75*
G02*
X135325000Y-44000000I325000J0D01*
G01*
X125325000Y-42500000D02*
G75*
G02*
X124675000Y-42500000I-325000J0D01*
G01*
X124675000Y-42500000D02*
G75*
G02*
X125325000Y-42500000I325000J0D01*
G01*
D11*
X122000000Y-59500000D03*
X124000000Y-59500000D03*
X122000000Y-62000000D03*
X124000000Y-62000000D03*
D12*
X133500000Y-48000000D03*
X131500000Y-48000000D03*
D13*
X137500000Y-61000000D03*
D14*
X137500000Y-63540000D03*
X134960000Y-61000000D03*
X134960000Y-63540000D03*
X132420000Y-61000000D03*
X132420000Y-63540000D03*
D11*
X136000000Y-44000000D03*
X134000000Y-44000000D03*
X122000000Y-56500000D03*
X124000000Y-56500000D03*
X122000000Y-54000000D03*
X124000000Y-54000000D03*
D15*
X131700000Y-50190000D03*
X131700000Y-51460000D03*
X131700000Y-52730000D03*
X131700000Y-54000000D03*
X139000000Y-54000000D03*
X139000000Y-52730000D03*
X139000000Y-51460000D03*
X139000000Y-50190000D03*
D16*
X141500000Y-52500000D03*
X141500000Y-50500000D03*
D12*
X132000000Y-56000000D03*
X130000000Y-56000000D03*
D11*
X137000000Y-48000000D03*
X139000000Y-48000000D03*
D12*
X126000000Y-42500000D03*
X124000000Y-42500000D03*
D17*
X133000000Y-58000000D03*
X130925000Y-58000000D03*
M02*
