G04 #@! TF.GenerationSoftware,KiCad,Pcbnew,8.0.7*
G04 #@! TF.CreationDate,2025-01-23T10:02:08+01:00*
G04 #@! TF.ProjectId,hackaday-eu-2025-sao-doge,6861636b-6164-4617-992d-65752d323032,rev?*
G04 #@! TF.SameCoordinates,Original*
G04 #@! TF.FileFunction,Legend,Top*
G04 #@! TF.FilePolarity,Positive*
%FSLAX46Y46*%
G04 Gerber Fmt 4.6, Leading zero omitted, Abs format (unit mm)*
G04 Created by KiCad (PCBNEW 8.0.7) date 2025-01-23 10:02:08*
%MOMM*%
%LPD*%
G01*
G04 APERTURE LIST*
G04 Aperture macros list*
%AMRoundRect*
0 Rectangle with rounded corners*
0 $1 Rounding radius*
0 $2 $3 $4 $5 $6 $7 $8 $9 X,Y pos of 4 corners*
0 Add a 4 corners polygon primitive as box body*
4,1,4,$2,$3,$4,$5,$6,$7,$8,$9,$2,$3,0*
0 Add four circle primitives for the rounded corners*
1,1,$1+$1,$2,$3*
1,1,$1+$1,$4,$5*
1,1,$1+$1,$6,$7*
1,1,$1+$1,$8,$9*
0 Add four rect primitives between the rounded corners*
20,1,$1+$1,$2,$3,$4,$5,0*
20,1,$1+$1,$4,$5,$6,$7,0*
20,1,$1+$1,$6,$7,$8,$9,0*
20,1,$1+$1,$8,$9,$2,$3,0*%
G04 Aperture macros list end*
%ADD10C,0.150000*%
%ADD11C,0.120000*%
%ADD12C,0.650000*%
%ADD13RoundRect,0.250000X-0.350000X-0.450000X0.350000X-0.450000X0.350000X0.450000X-0.350000X0.450000X0*%
%ADD14RoundRect,0.250000X0.350000X0.450000X-0.350000X0.450000X-0.350000X-0.450000X0.350000X-0.450000X0*%
%ADD15R,1.700000X1.700000*%
%ADD16O,1.700000X1.700000*%
%ADD17R,1.700000X0.650000*%
%ADD18RoundRect,0.250000X0.450000X-0.350000X0.450000X0.350000X-0.450000X0.350000X-0.450000X-0.350000X0*%
%ADD19RoundRect,0.250000X0.337500X0.475000X-0.337500X0.475000X-0.337500X-0.475000X0.337500X-0.475000X0*%
G04 APERTURE END LIST*
D10*
X125833333Y-59954819D02*
X125500000Y-59478628D01*
X125261905Y-59954819D02*
X125261905Y-58954819D01*
X125261905Y-58954819D02*
X125642857Y-58954819D01*
X125642857Y-58954819D02*
X125738095Y-59002438D01*
X125738095Y-59002438D02*
X125785714Y-59050057D01*
X125785714Y-59050057D02*
X125833333Y-59145295D01*
X125833333Y-59145295D02*
X125833333Y-59288152D01*
X125833333Y-59288152D02*
X125785714Y-59383390D01*
X125785714Y-59383390D02*
X125738095Y-59431009D01*
X125738095Y-59431009D02*
X125642857Y-59478628D01*
X125642857Y-59478628D02*
X125261905Y-59478628D01*
X126166667Y-58954819D02*
X126785714Y-58954819D01*
X126785714Y-58954819D02*
X126452381Y-59335771D01*
X126452381Y-59335771D02*
X126595238Y-59335771D01*
X126595238Y-59335771D02*
X126690476Y-59383390D01*
X126690476Y-59383390D02*
X126738095Y-59431009D01*
X126738095Y-59431009D02*
X126785714Y-59526247D01*
X126785714Y-59526247D02*
X126785714Y-59764342D01*
X126785714Y-59764342D02*
X126738095Y-59859580D01*
X126738095Y-59859580D02*
X126690476Y-59907200D01*
X126690476Y-59907200D02*
X126595238Y-59954819D01*
X126595238Y-59954819D02*
X126309524Y-59954819D01*
X126309524Y-59954819D02*
X126214286Y-59907200D01*
X126214286Y-59907200D02*
X126166667Y-59859580D01*
X125833333Y-62454819D02*
X125500000Y-61978628D01*
X125261905Y-62454819D02*
X125261905Y-61454819D01*
X125261905Y-61454819D02*
X125642857Y-61454819D01*
X125642857Y-61454819D02*
X125738095Y-61502438D01*
X125738095Y-61502438D02*
X125785714Y-61550057D01*
X125785714Y-61550057D02*
X125833333Y-61645295D01*
X125833333Y-61645295D02*
X125833333Y-61788152D01*
X125833333Y-61788152D02*
X125785714Y-61883390D01*
X125785714Y-61883390D02*
X125738095Y-61931009D01*
X125738095Y-61931009D02*
X125642857Y-61978628D01*
X125642857Y-61978628D02*
X125261905Y-61978628D01*
X126690476Y-61788152D02*
X126690476Y-62454819D01*
X126452381Y-61407200D02*
X126214286Y-62121485D01*
X126214286Y-62121485D02*
X126833333Y-62121485D01*
X129333333Y-48454819D02*
X129000000Y-47978628D01*
X128761905Y-48454819D02*
X128761905Y-47454819D01*
X128761905Y-47454819D02*
X129142857Y-47454819D01*
X129142857Y-47454819D02*
X129238095Y-47502438D01*
X129238095Y-47502438D02*
X129285714Y-47550057D01*
X129285714Y-47550057D02*
X129333333Y-47645295D01*
X129333333Y-47645295D02*
X129333333Y-47788152D01*
X129333333Y-47788152D02*
X129285714Y-47883390D01*
X129285714Y-47883390D02*
X129238095Y-47931009D01*
X129238095Y-47931009D02*
X129142857Y-47978628D01*
X129142857Y-47978628D02*
X128761905Y-47978628D01*
X130238095Y-47454819D02*
X129761905Y-47454819D01*
X129761905Y-47454819D02*
X129714286Y-47931009D01*
X129714286Y-47931009D02*
X129761905Y-47883390D01*
X129761905Y-47883390D02*
X129857143Y-47835771D01*
X129857143Y-47835771D02*
X130095238Y-47835771D01*
X130095238Y-47835771D02*
X130190476Y-47883390D01*
X130190476Y-47883390D02*
X130238095Y-47931009D01*
X130238095Y-47931009D02*
X130285714Y-48026247D01*
X130285714Y-48026247D02*
X130285714Y-48264342D01*
X130285714Y-48264342D02*
X130238095Y-48359580D01*
X130238095Y-48359580D02*
X130190476Y-48407200D01*
X130190476Y-48407200D02*
X130095238Y-48454819D01*
X130095238Y-48454819D02*
X129857143Y-48454819D01*
X129857143Y-48454819D02*
X129761905Y-48407200D01*
X129761905Y-48407200D02*
X129714286Y-48359580D01*
X139666666Y-61724819D02*
X139666666Y-62439104D01*
X139666666Y-62439104D02*
X139619047Y-62581961D01*
X139619047Y-62581961D02*
X139523809Y-62677200D01*
X139523809Y-62677200D02*
X139380952Y-62724819D01*
X139380952Y-62724819D02*
X139285714Y-62724819D01*
X140095238Y-61820057D02*
X140142857Y-61772438D01*
X140142857Y-61772438D02*
X140238095Y-61724819D01*
X140238095Y-61724819D02*
X140476190Y-61724819D01*
X140476190Y-61724819D02*
X140571428Y-61772438D01*
X140571428Y-61772438D02*
X140619047Y-61820057D01*
X140619047Y-61820057D02*
X140666666Y-61915295D01*
X140666666Y-61915295D02*
X140666666Y-62010533D01*
X140666666Y-62010533D02*
X140619047Y-62153390D01*
X140619047Y-62153390D02*
X140047619Y-62724819D01*
X140047619Y-62724819D02*
X140666666Y-62724819D01*
X134261905Y-42804819D02*
X134261905Y-41804819D01*
X134261905Y-41804819D02*
X134500000Y-41804819D01*
X134500000Y-41804819D02*
X134642857Y-41852438D01*
X134642857Y-41852438D02*
X134738095Y-41947676D01*
X134738095Y-41947676D02*
X134785714Y-42042914D01*
X134785714Y-42042914D02*
X134833333Y-42233390D01*
X134833333Y-42233390D02*
X134833333Y-42376247D01*
X134833333Y-42376247D02*
X134785714Y-42566723D01*
X134785714Y-42566723D02*
X134738095Y-42661961D01*
X134738095Y-42661961D02*
X134642857Y-42757200D01*
X134642857Y-42757200D02*
X134500000Y-42804819D01*
X134500000Y-42804819D02*
X134261905Y-42804819D01*
X135785714Y-42804819D02*
X135214286Y-42804819D01*
X135500000Y-42804819D02*
X135500000Y-41804819D01*
X135500000Y-41804819D02*
X135404762Y-41947676D01*
X135404762Y-41947676D02*
X135309524Y-42042914D01*
X135309524Y-42042914D02*
X135214286Y-42090533D01*
X125833333Y-56954819D02*
X125500000Y-56478628D01*
X125261905Y-56954819D02*
X125261905Y-55954819D01*
X125261905Y-55954819D02*
X125642857Y-55954819D01*
X125642857Y-55954819D02*
X125738095Y-56002438D01*
X125738095Y-56002438D02*
X125785714Y-56050057D01*
X125785714Y-56050057D02*
X125833333Y-56145295D01*
X125833333Y-56145295D02*
X125833333Y-56288152D01*
X125833333Y-56288152D02*
X125785714Y-56383390D01*
X125785714Y-56383390D02*
X125738095Y-56431009D01*
X125738095Y-56431009D02*
X125642857Y-56478628D01*
X125642857Y-56478628D02*
X125261905Y-56478628D01*
X126404762Y-56383390D02*
X126309524Y-56335771D01*
X126309524Y-56335771D02*
X126261905Y-56288152D01*
X126261905Y-56288152D02*
X126214286Y-56192914D01*
X126214286Y-56192914D02*
X126214286Y-56145295D01*
X126214286Y-56145295D02*
X126261905Y-56050057D01*
X126261905Y-56050057D02*
X126309524Y-56002438D01*
X126309524Y-56002438D02*
X126404762Y-55954819D01*
X126404762Y-55954819D02*
X126595238Y-55954819D01*
X126595238Y-55954819D02*
X126690476Y-56002438D01*
X126690476Y-56002438D02*
X126738095Y-56050057D01*
X126738095Y-56050057D02*
X126785714Y-56145295D01*
X126785714Y-56145295D02*
X126785714Y-56192914D01*
X126785714Y-56192914D02*
X126738095Y-56288152D01*
X126738095Y-56288152D02*
X126690476Y-56335771D01*
X126690476Y-56335771D02*
X126595238Y-56383390D01*
X126595238Y-56383390D02*
X126404762Y-56383390D01*
X126404762Y-56383390D02*
X126309524Y-56431009D01*
X126309524Y-56431009D02*
X126261905Y-56478628D01*
X126261905Y-56478628D02*
X126214286Y-56573866D01*
X126214286Y-56573866D02*
X126214286Y-56764342D01*
X126214286Y-56764342D02*
X126261905Y-56859580D01*
X126261905Y-56859580D02*
X126309524Y-56907200D01*
X126309524Y-56907200D02*
X126404762Y-56954819D01*
X126404762Y-56954819D02*
X126595238Y-56954819D01*
X126595238Y-56954819D02*
X126690476Y-56907200D01*
X126690476Y-56907200D02*
X126738095Y-56859580D01*
X126738095Y-56859580D02*
X126785714Y-56764342D01*
X126785714Y-56764342D02*
X126785714Y-56573866D01*
X126785714Y-56573866D02*
X126738095Y-56478628D01*
X126738095Y-56478628D02*
X126690476Y-56431009D01*
X126690476Y-56431009D02*
X126595238Y-56383390D01*
X125833333Y-54454819D02*
X125500000Y-53978628D01*
X125261905Y-54454819D02*
X125261905Y-53454819D01*
X125261905Y-53454819D02*
X125642857Y-53454819D01*
X125642857Y-53454819D02*
X125738095Y-53502438D01*
X125738095Y-53502438D02*
X125785714Y-53550057D01*
X125785714Y-53550057D02*
X125833333Y-53645295D01*
X125833333Y-53645295D02*
X125833333Y-53788152D01*
X125833333Y-53788152D02*
X125785714Y-53883390D01*
X125785714Y-53883390D02*
X125738095Y-53931009D01*
X125738095Y-53931009D02*
X125642857Y-53978628D01*
X125642857Y-53978628D02*
X125261905Y-53978628D01*
X126690476Y-53454819D02*
X126500000Y-53454819D01*
X126500000Y-53454819D02*
X126404762Y-53502438D01*
X126404762Y-53502438D02*
X126357143Y-53550057D01*
X126357143Y-53550057D02*
X126261905Y-53692914D01*
X126261905Y-53692914D02*
X126214286Y-53883390D01*
X126214286Y-53883390D02*
X126214286Y-54264342D01*
X126214286Y-54264342D02*
X126261905Y-54359580D01*
X126261905Y-54359580D02*
X126309524Y-54407200D01*
X126309524Y-54407200D02*
X126404762Y-54454819D01*
X126404762Y-54454819D02*
X126595238Y-54454819D01*
X126595238Y-54454819D02*
X126690476Y-54407200D01*
X126690476Y-54407200D02*
X126738095Y-54359580D01*
X126738095Y-54359580D02*
X126785714Y-54264342D01*
X126785714Y-54264342D02*
X126785714Y-54026247D01*
X126785714Y-54026247D02*
X126738095Y-53931009D01*
X126738095Y-53931009D02*
X126690476Y-53883390D01*
X126690476Y-53883390D02*
X126595238Y-53835771D01*
X126595238Y-53835771D02*
X126404762Y-53835771D01*
X126404762Y-53835771D02*
X126309524Y-53883390D01*
X126309524Y-53883390D02*
X126261905Y-53931009D01*
X126261905Y-53931009D02*
X126214286Y-54026247D01*
X135238095Y-55454819D02*
X135238095Y-56264342D01*
X135238095Y-56264342D02*
X135285714Y-56359580D01*
X135285714Y-56359580D02*
X135333333Y-56407200D01*
X135333333Y-56407200D02*
X135428571Y-56454819D01*
X135428571Y-56454819D02*
X135619047Y-56454819D01*
X135619047Y-56454819D02*
X135714285Y-56407200D01*
X135714285Y-56407200D02*
X135761904Y-56359580D01*
X135761904Y-56359580D02*
X135809523Y-56264342D01*
X135809523Y-56264342D02*
X135809523Y-55454819D01*
X136809523Y-56454819D02*
X136238095Y-56454819D01*
X136523809Y-56454819D02*
X136523809Y-55454819D01*
X136523809Y-55454819D02*
X136428571Y-55597676D01*
X136428571Y-55597676D02*
X136333333Y-55692914D01*
X136333333Y-55692914D02*
X136238095Y-55740533D01*
X141333333Y-54954819D02*
X141000000Y-54478628D01*
X140761905Y-54954819D02*
X140761905Y-53954819D01*
X140761905Y-53954819D02*
X141142857Y-53954819D01*
X141142857Y-53954819D02*
X141238095Y-54002438D01*
X141238095Y-54002438D02*
X141285714Y-54050057D01*
X141285714Y-54050057D02*
X141333333Y-54145295D01*
X141333333Y-54145295D02*
X141333333Y-54288152D01*
X141333333Y-54288152D02*
X141285714Y-54383390D01*
X141285714Y-54383390D02*
X141238095Y-54431009D01*
X141238095Y-54431009D02*
X141142857Y-54478628D01*
X141142857Y-54478628D02*
X140761905Y-54478628D01*
X141714286Y-54050057D02*
X141761905Y-54002438D01*
X141761905Y-54002438D02*
X141857143Y-53954819D01*
X141857143Y-53954819D02*
X142095238Y-53954819D01*
X142095238Y-53954819D02*
X142190476Y-54002438D01*
X142190476Y-54002438D02*
X142238095Y-54050057D01*
X142238095Y-54050057D02*
X142285714Y-54145295D01*
X142285714Y-54145295D02*
X142285714Y-54240533D01*
X142285714Y-54240533D02*
X142238095Y-54383390D01*
X142238095Y-54383390D02*
X141666667Y-54954819D01*
X141666667Y-54954819D02*
X142285714Y-54954819D01*
X128333333Y-54954819D02*
X128000000Y-54478628D01*
X127761905Y-54954819D02*
X127761905Y-53954819D01*
X127761905Y-53954819D02*
X128142857Y-53954819D01*
X128142857Y-53954819D02*
X128238095Y-54002438D01*
X128238095Y-54002438D02*
X128285714Y-54050057D01*
X128285714Y-54050057D02*
X128333333Y-54145295D01*
X128333333Y-54145295D02*
X128333333Y-54288152D01*
X128333333Y-54288152D02*
X128285714Y-54383390D01*
X128285714Y-54383390D02*
X128238095Y-54431009D01*
X128238095Y-54431009D02*
X128142857Y-54478628D01*
X128142857Y-54478628D02*
X127761905Y-54478628D01*
X128666667Y-53954819D02*
X129333333Y-53954819D01*
X129333333Y-53954819D02*
X128904762Y-54954819D01*
X140833333Y-48454819D02*
X140500000Y-47978628D01*
X140261905Y-48454819D02*
X140261905Y-47454819D01*
X140261905Y-47454819D02*
X140642857Y-47454819D01*
X140642857Y-47454819D02*
X140738095Y-47502438D01*
X140738095Y-47502438D02*
X140785714Y-47550057D01*
X140785714Y-47550057D02*
X140833333Y-47645295D01*
X140833333Y-47645295D02*
X140833333Y-47788152D01*
X140833333Y-47788152D02*
X140785714Y-47883390D01*
X140785714Y-47883390D02*
X140738095Y-47931009D01*
X140738095Y-47931009D02*
X140642857Y-47978628D01*
X140642857Y-47978628D02*
X140261905Y-47978628D01*
X141785714Y-48454819D02*
X141214286Y-48454819D01*
X141500000Y-48454819D02*
X141500000Y-47454819D01*
X141500000Y-47454819D02*
X141404762Y-47597676D01*
X141404762Y-47597676D02*
X141309524Y-47692914D01*
X141309524Y-47692914D02*
X141214286Y-47740533D01*
X124261905Y-44604819D02*
X124261905Y-43604819D01*
X124261905Y-43604819D02*
X124500000Y-43604819D01*
X124500000Y-43604819D02*
X124642857Y-43652438D01*
X124642857Y-43652438D02*
X124738095Y-43747676D01*
X124738095Y-43747676D02*
X124785714Y-43842914D01*
X124785714Y-43842914D02*
X124833333Y-44033390D01*
X124833333Y-44033390D02*
X124833333Y-44176247D01*
X124833333Y-44176247D02*
X124785714Y-44366723D01*
X124785714Y-44366723D02*
X124738095Y-44461961D01*
X124738095Y-44461961D02*
X124642857Y-44557200D01*
X124642857Y-44557200D02*
X124500000Y-44604819D01*
X124500000Y-44604819D02*
X124261905Y-44604819D01*
X125214286Y-43700057D02*
X125261905Y-43652438D01*
X125261905Y-43652438D02*
X125357143Y-43604819D01*
X125357143Y-43604819D02*
X125595238Y-43604819D01*
X125595238Y-43604819D02*
X125690476Y-43652438D01*
X125690476Y-43652438D02*
X125738095Y-43700057D01*
X125738095Y-43700057D02*
X125785714Y-43795295D01*
X125785714Y-43795295D02*
X125785714Y-43890533D01*
X125785714Y-43890533D02*
X125738095Y-44033390D01*
X125738095Y-44033390D02*
X125166667Y-44604819D01*
X125166667Y-44604819D02*
X125785714Y-44604819D01*
X134833333Y-58359580D02*
X134785714Y-58407200D01*
X134785714Y-58407200D02*
X134642857Y-58454819D01*
X134642857Y-58454819D02*
X134547619Y-58454819D01*
X134547619Y-58454819D02*
X134404762Y-58407200D01*
X134404762Y-58407200D02*
X134309524Y-58311961D01*
X134309524Y-58311961D02*
X134261905Y-58216723D01*
X134261905Y-58216723D02*
X134214286Y-58026247D01*
X134214286Y-58026247D02*
X134214286Y-57883390D01*
X134214286Y-57883390D02*
X134261905Y-57692914D01*
X134261905Y-57692914D02*
X134309524Y-57597676D01*
X134309524Y-57597676D02*
X134404762Y-57502438D01*
X134404762Y-57502438D02*
X134547619Y-57454819D01*
X134547619Y-57454819D02*
X134642857Y-57454819D01*
X134642857Y-57454819D02*
X134785714Y-57502438D01*
X134785714Y-57502438D02*
X134833333Y-57550057D01*
X135785714Y-58454819D02*
X135214286Y-58454819D01*
X135500000Y-58454819D02*
X135500000Y-57454819D01*
X135500000Y-57454819D02*
X135404762Y-57597676D01*
X135404762Y-57597676D02*
X135309524Y-57692914D01*
X135309524Y-57692914D02*
X135214286Y-57740533D01*
D11*
X122772936Y-58765000D02*
X123227064Y-58765000D01*
X122772936Y-60235000D02*
X123227064Y-60235000D01*
X122772936Y-61265000D02*
X123227064Y-61265000D01*
X122772936Y-62735000D02*
X123227064Y-62735000D01*
X132727064Y-47265000D02*
X132272936Y-47265000D01*
X132727064Y-48735000D02*
X132272936Y-48735000D01*
X131090000Y-59670000D02*
X131090000Y-64870000D01*
X136230000Y-59670000D02*
X131090000Y-59670000D01*
X136230000Y-59670000D02*
X136230000Y-62270000D01*
X136230000Y-62270000D02*
X138830000Y-62270000D01*
X137500000Y-59670000D02*
X138830000Y-59670000D01*
X138830000Y-59670000D02*
X138830000Y-61000000D01*
X138830000Y-62270000D02*
X138830000Y-64870000D01*
X138830000Y-64870000D02*
X131090000Y-64870000D01*
X134772936Y-44735000D02*
X135227064Y-44735000D01*
X134772936Y-43265000D02*
X135227064Y-43265000D01*
X122772936Y-55765000D02*
X123227064Y-55765000D01*
X122772936Y-57235000D02*
X123227064Y-57235000D01*
X122772936Y-53265000D02*
X123227064Y-53265000D01*
X122772936Y-54735000D02*
X123227064Y-54735000D01*
D10*
X132600000Y-49340000D02*
X132600000Y-49545000D01*
X132600000Y-49340000D02*
X138100000Y-49340000D01*
X132600000Y-54850000D02*
X132600000Y-54645000D01*
X132600000Y-54850000D02*
X138100000Y-54850000D01*
X138100000Y-49340000D02*
X138100000Y-49545000D01*
X138100000Y-54850000D02*
X138100000Y-54645000D01*
D11*
X132050000Y-49595000D02*
X131810000Y-49265000D01*
X132290000Y-49265000D01*
X132050000Y-49595000D01*
G36*
X132050000Y-49595000D02*
G01*
X131810000Y-49265000D01*
X132290000Y-49265000D01*
X132050000Y-49595000D01*
G37*
X140765000Y-51727064D02*
X140765000Y-51272936D01*
X142235000Y-51727064D02*
X142235000Y-51272936D01*
X131227064Y-55265000D02*
X130772936Y-55265000D01*
X131227064Y-56735000D02*
X130772936Y-56735000D01*
X137772936Y-47265000D02*
X138227064Y-47265000D01*
X137772936Y-48735000D02*
X138227064Y-48735000D01*
X125227064Y-41765000D02*
X124772936Y-41765000D01*
X125227064Y-43235000D02*
X124772936Y-43235000D01*
X132223752Y-57265000D02*
X131701248Y-57265000D01*
X132223752Y-58735000D02*
X131701248Y-58735000D01*
%LPC*%
D12*
X135325000Y-44000000D02*
G75*
G02*
X134675000Y-44000000I-325000J0D01*
G01*
X134675000Y-44000000D02*
G75*
G02*
X135325000Y-44000000I325000J0D01*
G01*
X125325000Y-42500000D02*
G75*
G02*
X124675000Y-42500000I-325000J0D01*
G01*
X124675000Y-42500000D02*
G75*
G02*
X125325000Y-42500000I325000J0D01*
G01*
D13*
X122000000Y-59500000D03*
X124000000Y-59500000D03*
X122000000Y-62000000D03*
X124000000Y-62000000D03*
D14*
X133500000Y-48000000D03*
X131500000Y-48000000D03*
D15*
X137500000Y-61000000D03*
D16*
X137500000Y-63540000D03*
X134960000Y-61000000D03*
X134960000Y-63540000D03*
X132420000Y-61000000D03*
X132420000Y-63540000D03*
D13*
X136000000Y-44000000D03*
X134000000Y-44000000D03*
X122000000Y-56500000D03*
X124000000Y-56500000D03*
X122000000Y-54000000D03*
X124000000Y-54000000D03*
D17*
X131700000Y-50190000D03*
X131700000Y-51460000D03*
X131700000Y-52730000D03*
X131700000Y-54000000D03*
X139000000Y-54000000D03*
X139000000Y-52730000D03*
X139000000Y-51460000D03*
X139000000Y-50190000D03*
D18*
X141500000Y-52500000D03*
X141500000Y-50500000D03*
D14*
X132000000Y-56000000D03*
X130000000Y-56000000D03*
D13*
X137000000Y-48000000D03*
X139000000Y-48000000D03*
D14*
X126000000Y-42500000D03*
X124000000Y-42500000D03*
D19*
X133000000Y-58000000D03*
X130925000Y-58000000D03*
%LPD*%
M02*
